# Blender v3.4.1 OBJ File: 'Halloween_Bits_Export.blend'
# www.blender.org
mtllib candy_bucket_A.mtl
o candy_bucket_A_Cylinder.254
v 0.274577 0.665674 -0.274577
v 0.375080 0.665674 -0.100502
v 0.375080 0.665674 0.100502
v 0.274577 0.665674 0.274577
v 0.100502 0.665674 0.375080
v -0.100502 0.665674 0.375080
v -0.274577 0.665674 0.274577
v -0.375080 0.665674 0.100502
v -0.375080 0.665674 -0.100502
v -0.274577 0.665674 -0.274577
v -0.100502 0.665674 -0.375080
v 0.100502 0.665674 -0.375080
v -0.000000 -0.000001 0.000000
v 0.232401 0.033976 -0.232401
v 0.317466 0.033976 -0.085065
v 0.317466 0.033976 0.085065
v 0.232401 0.033976 0.232401
v 0.085065 0.033976 0.317466
v -0.085065 0.033976 0.317466
v -0.232401 0.033976 0.232401
v -0.317466 0.033976 0.085065
v -0.317466 0.033976 -0.085065
v -0.232401 0.033976 -0.232401
v -0.085065 0.033976 -0.317466
v 0.085065 0.033976 -0.317466
v 0.313265 0.776621 -0.083939
v 0.229326 0.776621 -0.229326
v 0.313265 0.776621 0.083939
v 0.229326 0.776621 0.229326
v 0.083939 0.776621 0.313265
v -0.083939 0.776621 0.313265
v -0.229326 0.776621 0.229326
v -0.313265 0.776621 0.083939
v -0.313265 0.776621 -0.083939
v -0.229326 0.776621 -0.229326
v -0.083939 0.776621 -0.313265
v 0.083939 0.776621 -0.313265
v -0.303304 0.695208 0.303304
v -0.414321 0.695208 0.111017
v 0.303304 0.695208 0.303304
v 0.111017 0.695208 0.414321
v -0.111017 0.695208 -0.414321
v 0.111017 0.695208 -0.414321
v 0.303304 0.695208 -0.303304
v 0.414321 0.695208 -0.111017
v -0.414321 0.695208 -0.111017
v -0.111017 0.695208 0.414321
v 0.414321 0.695208 0.111017
v -0.303304 0.695208 -0.303304
v 0.375080 0.776621 -0.100502
v 0.274577 0.776621 -0.274577
v 0.375080 0.776621 0.100502
v 0.274577 0.776621 0.274577
v 0.100502 0.776621 0.375080
v -0.100502 0.776621 0.375080
v -0.274577 0.776621 0.274577
v -0.375080 0.776621 0.100502
v -0.375080 0.776621 -0.100502
v -0.274577 0.776621 -0.274577
v -0.100502 0.776621 -0.375080
v 0.100502 0.776621 -0.375080
v -0.000000 0.044377 0.000000
v 0.271669 -0.000002 -0.072794
v 0.198876 -0.000002 -0.198876
v 0.271669 -0.000002 0.072794
v 0.198876 -0.000002 0.198876
v 0.072794 -0.000002 0.271669
v -0.072794 -0.000002 0.271669
v -0.198876 -0.000002 0.198876
v -0.271669 -0.000002 0.072794
v -0.271669 -0.000002 -0.072794
v -0.198876 -0.000002 -0.198876
v -0.072794 -0.000002 -0.271669
v 0.072794 -0.000002 -0.271669
v 0.260380 0.044377 -0.069769
v 0.190611 0.044377 -0.190611
v 0.260380 0.044377 0.069769
v 0.190611 0.044377 0.190612
v 0.069769 0.044377 0.260380
v -0.069769 0.044377 0.260380
v -0.190612 0.044377 0.190612
v -0.260380 0.044377 0.069769
v -0.260380 0.044377 -0.069769
v -0.190612 0.044377 -0.190611
v -0.069769 0.044377 -0.260380
v 0.069769 0.044377 -0.260380
vt 0.203126 0.193750
vt 0.203126 0.005179
vt 0.203126 0.005179
vt 0.203126 0.193750
vt 0.025000 0.210714
vt 0.051795 0.210714
vt 0.055901 0.225000
vt 0.030610 0.225000
vt 0.183486 0.018125
vt 0.204893 0.018125
vt 0.178615 0.009375
vt 0.164250 0.009375
vt 0.204893 0.018125
vt 0.178615 0.009375
vt 0.183486 0.018125
vt 0.164250 0.009375
vt 0.146407 0.018125
vt 0.139366 0.009375
vt 0.103593 0.018125
vt 0.110635 0.009375
vt 0.066515 0.018125
vt 0.085752 0.009375
vt 0.045106 0.018125
vt 0.071385 0.009375
vt 0.045106 0.018125
vt 0.071385 0.009375
vt 0.066515 0.018125
vt 0.085752 0.009375
vt 0.103593 0.018125
vt 0.110635 0.009375
vt 0.146407 0.018125
vt 0.139366 0.009375
vt 0.203126 0.193750
vt 0.203126 0.005179
vt 0.203126 0.005179
vt 0.203126 0.193750
vt 0.151796 0.210714
vt 0.198205 0.210714
vt 0.194099 0.225000
vt 0.150293 0.225000
vt 0.151796 0.210714
vt 0.098205 0.210714
vt 0.099709 0.225000
vt 0.150293 0.225000
vt 0.225000 0.210714
vt 0.198205 0.210714
vt 0.194099 0.225000
vt 0.219391 0.225000
vt 0.025000 0.210714
vt 0.030610 0.225000
vt 0.098205 0.210714
vt 0.099709 0.225000
vt 0.225000 0.210714
vt 0.219391 0.225000
vt 0.051795 0.210714
vt 0.055901 0.225000
vt 0.183486 0.033750
vt 0.194099 0.196429
vt 0.219391 0.196429
vt 0.204893 0.033750
vt 0.219391 0.196429
vt 0.204893 0.033750
vt 0.103593 0.033750
vt 0.099709 0.196429
vt 0.150293 0.196429
vt 0.146407 0.033750
vt 0.066515 0.033750
vt 0.055901 0.196429
vt 0.045106 0.033750
vt 0.030610 0.196429
vt 0.045106 0.033750
vt 0.030610 0.196429
vt 0.066515 0.033750
vt 0.055901 0.196429
vt 0.103593 0.033750
vt 0.099709 0.196429
vt 0.146407 0.033750
vt 0.150293 0.196429
vt 0.183486 0.033750
vt 0.194099 0.196429
vt 0.099709 0.186405
vt 0.055901 0.186405
vt 0.051795 0.197789
vt 0.098205 0.197789
vt 0.194099 0.186405
vt 0.219391 0.186405
vt 0.225000 0.197789
vt 0.198205 0.197789
vt 0.055901 0.186405
vt 0.099709 0.186405
vt 0.098205 0.197789
vt 0.051795 0.197789
vt 0.030610 0.186405
vt 0.025000 0.197789
vt 0.219391 0.186405
vt 0.225000 0.197789
vt 0.194099 0.186405
vt 0.150293 0.186405
vt 0.151796 0.197789
vt 0.198205 0.197789
vt 0.150293 0.186405
vt 0.151796 0.197789
vt 0.030610 0.186405
vt 0.025000 0.197789
vt 0.182711 0.240625
vt 0.203836 0.240625
vt 0.219391 0.240625
vt 0.194099 0.240625
vt 0.203836 0.240625
vt 0.219391 0.240625
vt 0.182711 0.240625
vt 0.194099 0.240625
vt 0.146124 0.240625
vt 0.150293 0.240625
vt 0.103876 0.240625
vt 0.099709 0.240625
vt 0.067289 0.240625
vt 0.055901 0.240625
vt 0.046166 0.240625
vt 0.030610 0.240625
vt 0.046166 0.240625
vt 0.030610 0.240625
vt 0.067289 0.240625
vt 0.055901 0.240625
vt 0.103876 0.240625
vt 0.099709 0.240625
vt 0.146124 0.240625
vt 0.150293 0.240625
vt 0.203126 0.193750
vt 0.203126 0.005179
vt 0.203126 0.005179
vt 0.203126 0.193750
vt 0.203126 0.193750
vt 0.203126 0.005179
vt 0.203126 0.005179
vt 0.203126 0.193750
vt 0.203126 0.005179
vt 0.203126 0.193750
vt 0.203126 0.005179
vt 0.203126 0.193750
vt 0.203126 0.005179
vt 0.203126 0.193750
vt 0.203126 0.005179
vt 0.203126 0.193750
vt 0.125000 0.009375
vt 0.203126 0.005179
vn -0.7051 0.0746 0.7051
vn -0.9632 0.0746 0.2581
vn -0.8643 0.4465 0.2316
vn -0.6327 0.4465 0.6327
vn 0.4119 -0.8128 -0.4119
vn 0.5627 -0.8128 -0.1508
vn 0.3387 -0.9365 -0.0907
vn 0.2479 -0.9365 -0.2479
vn 0.5627 -0.8128 0.1508
vn 0.3387 -0.9365 0.0907
vn 0.4119 -0.8128 0.4119
vn 0.2479 -0.9365 0.2479
vn 0.1508 -0.8128 0.5627
vn 0.0907 -0.9365 0.3387
vn -0.1508 -0.8128 0.5627
vn -0.0907 -0.9365 0.3387
vn -0.4119 -0.8128 0.4119
vn -0.2479 -0.9365 0.2479
vn -0.5627 -0.8128 0.1508
vn -0.3387 -0.9365 0.0907
vn -0.5627 -0.8128 -0.1508
vn -0.3387 -0.9365 -0.0907
vn -0.4119 -0.8128 -0.4119
vn -0.2479 -0.9365 -0.2479
vn -0.1508 -0.8128 -0.5627
vn -0.0907 -0.9365 -0.3387
vn 0.1508 -0.8128 -0.5627
vn 0.0907 -0.9365 -0.3387
vn 0.9632 0.0746 -0.2581
vn 0.9632 0.0746 0.2581
vn 0.2316 0.4465 0.8643
vn 0.6327 0.4465 0.6327
vn 0.2316 0.4465 -0.8643
vn -0.2316 0.4465 -0.8643
vn 0.8643 0.4465 -0.2316
vn 0.6327 0.4465 -0.6327
vn -0.8643 0.4465 -0.2316
vn -0.2316 0.4465 0.8643
vn 0.8643 0.4465 0.2316
vn -0.6327 0.4465 -0.6327
vn 0.7040 -0.0940 -0.7040
vn 0.9616 -0.0940 -0.2577
vn 0.9616 -0.0940 0.2577
vn -0.2577 -0.0940 -0.9616
vn 0.2577 -0.0940 -0.9616
vn -0.7040 -0.0940 -0.7040
vn -0.9616 -0.0940 -0.2577
vn -0.9616 -0.0940 0.2577
vn -0.7040 -0.0940 0.7040
vn -0.2577 -0.0940 0.9616
vn 0.2577 -0.0940 0.9616
vn 0.7040 -0.0940 0.7040
vn -0.1522 -0.8089 -0.5680
vn -0.4158 -0.8089 -0.4158
vn 0.4158 -0.8089 0.4158
vn 0.5680 -0.8089 0.1522
vn -0.4158 -0.8089 0.4158
vn -0.1522 -0.8089 0.5680
vn -0.5680 -0.8089 -0.1522
vn 0.5680 -0.8089 -0.1522
vn 0.4158 -0.8089 -0.4158
vn 0.1522 -0.8089 -0.5680
vn 0.1522 -0.8089 0.5680
vn -0.5680 -0.8089 0.1522
vn 0.0000 1.0000 0.0000
vn 0.2581 0.0746 0.9632
vn -0.2581 0.0746 0.9632
vn -0.2581 0.0746 -0.9632
vn 0.2581 0.0746 -0.9632
vn -0.9632 0.0746 -0.2581
vn 0.7051 0.0746 0.7051
vn 0.7051 0.0746 -0.7051
vn -0.7051 0.0746 -0.7051
vn -0.0000 -1.0000 0.0000
usemtl HalloweenBits
s 1
f 27/1/1 76/2/1 75/3/2 26/4/2
f 39/5/3 38/6/4 56/7/4 57/8/3
f 14/9/5 15/10/6 63/11/7 64/12/8
f 15/10/6 16/13/9 65/14/10 63/11/7
f 16/13/9 17/15/11 66/16/12 65/14/10
f 17/15/11 18/17/13 67/18/14 66/16/12
f 18/17/13 19/19/15 68/20/16 67/18/14
f 19/19/15 20/21/17 69/22/18 68/20/16
f 20/21/17 21/23/19 70/24/20 69/22/18
f 21/23/19 22/25/21 71/26/22 70/24/20
f 22/25/21 23/27/23 72/28/24 71/26/22
f 23/27/23 24/29/25 73/30/26 72/28/24
f 24/29/25 25/31/27 74/32/28 73/30/26
f 25/31/27 14/9/5 64/12/8 74/32/28
f 33/33/29 82/34/29 83/35/30 34/36/30
f 41/37/31 40/38/32 53/39/32 54/40/31
f 43/41/33 42/42/34 60/43/34 61/44/33
f 45/45/35 44/46/36 51/47/36 50/48/35
f 46/49/37 39/5/3 57/8/3 58/50/37
f 47/51/38 41/37/31 54/40/31 55/52/38
f 44/46/36 43/41/33 61/44/33 51/47/36
f 48/53/39 45/45/35 50/48/35 52/54/39
f 49/55/40 46/49/37 58/50/37 59/56/40
f 38/6/4 47/51/38 55/52/38 56/7/4
f 40/38/32 48/53/39 52/54/39 53/39/32
f 42/42/34 49/55/40 59/56/40 60/43/34
f 14/57/41 1/58/41 2/59/42 15/60/42
f 15/60/42 2/59/42 3/61/43 16/62/43
f 24/63/44 11/64/44 12/65/45 25/66/45
f 23/67/46 10/68/46 11/64/44 24/63/44
f 22/69/47 9/70/47 10/68/46 23/67/46
f 21/71/48 8/72/48 9/70/47 22/69/47
f 20/73/49 7/74/49 8/72/48 21/71/48
f 19/75/50 6/76/50 7/74/49 20/73/49
f 18/77/51 5/78/51 6/76/50 19/75/50
f 17/79/52 4/80/52 5/78/51 18/77/51
f 16/62/43 3/61/43 4/80/52 17/79/52
f 25/66/45 12/65/45 1/58/41 14/57/41
f 11/81/53 10/82/54 49/83/54 42/84/53
f 4/85/55 3/86/56 48/87/56 40/88/55
f 7/89/57 6/90/58 47/91/58 38/92/57
f 10/82/54 9/93/59 46/94/59 49/83/54
f 3/86/56 2/95/60 45/96/60 48/87/56
f 1/97/61 12/98/62 43/99/62 44/100/61
f 6/90/58 5/101/63 41/102/63 47/91/58
f 9/93/59 8/103/64 39/104/64 46/94/59
f 2/95/60 1/97/61 44/100/61 45/96/60
f 12/98/62 11/81/53 42/84/53 43/99/62
f 5/101/63 4/85/55 40/88/55 41/102/63
f 8/103/64 7/89/57 38/92/57 39/104/64
f 27/105/65 26/106/65 50/107/65 51/108/65
f 26/106/65 28/109/65 52/110/65 50/107/65
f 28/109/65 29/111/65 53/112/65 52/110/65
f 29/111/65 30/113/65 54/114/65 53/112/65
f 30/113/65 31/115/65 55/116/65 54/114/65
f 31/115/65 32/117/65 56/118/65 55/116/65
f 32/117/65 33/119/65 57/120/65 56/118/65
f 33/119/65 34/121/65 58/122/65 57/120/65
f 34/121/65 35/123/65 59/124/65 58/122/65
f 35/123/65 36/125/65 60/126/65 59/124/65
f 36/125/65 37/127/65 61/128/65 60/126/65
f 37/127/65 27/105/65 51/108/65 61/128/65
f 36/129/66 85/130/66 86/131/67 37/132/67
f 30/133/68 79/134/68 80/135/69 31/136/69
f 37/132/67 86/131/67 76/2/1 27/1/1
f 26/4/2 75/3/2 77/137/70 28/138/70
f 34/36/30 83/35/30 84/139/71 35/140/71
f 31/136/69 80/135/69 81/141/72 32/142/72
f 28/138/70 77/137/70 78/143/73 29/144/73
f 36/129/66 35/140/71 84/139/71 85/130/66
f 32/142/72 81/141/72 82/34/29 33/33/29
f 29/144/73 78/143/73 79/134/68 30/133/68
f 13/145/74 64/12/8 63/11/7
f 13/145/74 63/11/7 65/14/10
f 13/145/74 65/14/10 66/16/12
f 13/145/74 66/16/12 67/18/14
f 13/145/74 67/18/14 68/20/16
f 13/145/74 68/20/16 69/22/18
f 13/145/74 69/22/18 70/24/20
f 13/145/74 70/24/20 71/26/22
f 13/145/74 71/26/22 72/28/24
f 13/145/74 72/28/24 73/30/26
f 13/145/74 73/30/26 74/32/28
f 13/145/74 74/32/28 64/12/8
f 62/146/65 75/3/65 76/2/65
f 62/146/65 77/137/65 75/3/65
f 62/146/65 78/143/65 77/137/65
f 62/146/65 79/134/65 78/143/65
f 62/146/65 80/135/65 79/134/65
f 62/146/65 81/141/65 80/135/65
f 62/146/65 82/34/65 81/141/65
f 62/146/65 83/35/65 82/34/65
f 62/146/65 84/139/65 83/35/65
f 62/146/65 85/130/65 84/139/65
f 62/146/65 86/131/65 85/130/65
f 62/146/65 76/2/65 86/131/65
