# Blender v3.4.1 OBJ File: 'Halloween_Bits_Export.blend'
# www.blender.org
mtllib lollipop_brown.mtl
o lollipop_brown_Cylinder.247
v -0.000000 0.622649 -0.040088
v 0.028346 0.622649 -0.028346
v 0.040088 0.622649 -0.000000
v 0.028346 0.622649 0.028346
v -0.000000 0.622649 0.040088
v -0.028346 0.622649 0.028346
v -0.040088 0.622649 -0.000000
v -0.028346 0.622649 -0.028346
v -0.000000 -0.284230 -0.000000
v -0.000000 -0.268758 -0.040088
v 0.028346 -0.268758 -0.028346
v 0.040088 -0.268758 -0.000000
v 0.028346 -0.268758 0.028346
v -0.000000 -0.268758 0.040088
v -0.028346 -0.268758 0.028346
v -0.040088 -0.268758 -0.000000
v -0.028346 -0.268758 -0.028346
v -0.000001 0.335724 0.061947
v -0.000000 0.297650 0.025512
v -0.000001 0.335724 -0.061946
v -0.000000 0.297650 -0.025512
v 0.143462 0.374165 0.061947
v 0.162500 0.341191 0.025512
v 0.143462 0.374165 -0.061946
v 0.162500 0.341191 -0.025512
v 0.248484 0.479187 0.061947
v 0.281458 0.460150 0.025512
v 0.248484 0.479187 -0.061946
v 0.281458 0.460150 -0.025512
v 0.286924 0.622650 0.061947
v 0.325000 0.622650 0.025512
v 0.286924 0.622650 -0.061946
v 0.325000 0.622650 -0.025512
v 0.248484 0.766112 0.061947
v 0.281458 0.785150 0.025512
v 0.248484 0.766112 -0.061946
v 0.281458 0.785150 -0.025512
v 0.143462 0.871134 0.061947
v 0.162500 0.904108 0.025512
v 0.143462 0.871134 -0.061946
v 0.162500 0.904108 -0.025512
v -0.000001 0.909575 0.061947
v 0.000000 0.947650 0.025512
v -0.000001 0.909575 -0.061946
v 0.000000 0.947650 -0.025512
v -0.143464 0.871134 0.061947
v -0.162500 0.904108 0.025512
v -0.143464 0.871134 -0.061946
v -0.162500 0.904108 -0.025512
v -0.248486 0.766112 0.061947
v -0.281458 0.785150 0.025512
v -0.248486 0.766112 -0.061946
v -0.281458 0.785150 -0.025512
v -0.286926 0.622650 0.061947
v -0.325000 0.622650 0.025512
v -0.286926 0.622650 -0.061946
v -0.325000 0.622650 -0.025512
v -0.248486 0.479187 0.061947
v -0.281458 0.460150 0.025512
v -0.248486 0.479187 -0.061946
v -0.281458 0.460150 -0.025512
v -0.143464 0.374165 0.061947
v -0.162500 0.341192 0.025512
v -0.143464 0.374165 -0.061946
v -0.162500 0.341192 -0.025512
v 0.000000 0.622650 0.044938
v 0.000000 0.622650 -0.044938
v 0.031776 0.527869 0.050064
v -0.066194 0.547740 0.050065
v -0.097970 0.642521 0.050065
v -0.031776 0.717430 0.050064
v 0.066194 0.697559 0.050065
v 0.097970 0.602778 0.050065
v -0.019871 0.524679 0.050064
v -0.094780 0.590873 0.050064
v -0.074909 0.688844 0.050064
v 0.019871 0.720620 0.050064
v 0.094780 0.654426 0.050064
v 0.074909 0.556455 0.050064
v -0.019871 0.524679 -0.050064
v -0.094780 0.590873 -0.050064
v -0.074909 0.688844 -0.050064
v 0.019871 0.720620 -0.050064
v 0.094780 0.654426 -0.050064
v 0.074909 0.556455 -0.050064
v 0.031776 0.527869 -0.050064
v -0.066194 0.547740 -0.050064
v -0.097970 0.642521 -0.050064
v -0.031776 0.717430 -0.050064
v 0.066194 0.697559 -0.050064
v 0.097970 0.602778 -0.050064
v 0.029216 0.420710 -0.059163
v -0.075669 0.433157 -0.059163
v -0.201940 0.593434 -0.059163
v -0.126271 0.782927 -0.059163
v 0.075668 0.812142 -0.059163
v 0.201940 0.651865 -0.059163
v 0.126271 0.462372 -0.059163
v -0.160277 0.496378 -0.059163
v -0.189493 0.698318 -0.059163
v -0.029216 0.824589 -0.059163
v 0.160277 0.748921 -0.059163
v 0.189493 0.546981 -0.059163
v 0.029216 0.420710 0.059164
v -0.160277 0.496378 0.059163
v -0.189493 0.698318 0.059164
v -0.029215 0.824589 0.059164
v 0.160277 0.748921 0.059163
v 0.189493 0.546981 0.059164
v -0.075669 0.433157 0.059164
v -0.201940 0.593434 0.059164
v -0.126271 0.782927 0.059164
v 0.075668 0.812142 0.059164
v 0.201940 0.651865 0.059164
v 0.126271 0.462372 0.059164
v 0.000000 0.622650 0.044938
v 0.000000 0.622650 -0.044938
vt 0.681009 0.780911
vt 0.681009 0.923691
vt 0.685550 0.923691
vt 0.685550 0.780911
vt 0.691971 0.780911
vt 0.691971 0.923691
vt 0.690091 0.923691
vt 0.690091 0.780911
vt 0.685550 0.923691
vt 0.685550 0.780911
vt 0.681009 0.923691
vt 0.681009 0.780911
vt 0.679129 0.923691
vt 0.679129 0.780911
vt 0.690091 0.780911
vt 0.690091 0.923691
vt 0.685550 0.778433
vt 0.448834 0.525316
vt 0.457132 0.560844
vt 0.457132 0.560844
vt 0.448834 0.525316
vt 0.066507 0.560844
vt 0.069543 0.609375
vt 0.069543 0.609375
vt 0.066507 0.560844
vt 0.460168 0.609375
vt 0.457132 0.657906
vt 0.457132 0.657906
vt 0.460168 0.609375
vt 0.066507 0.657906
vt 0.058209 0.693433
vt 0.058209 0.693433
vt 0.066507 0.657906
vt 0.448834 0.693433
vt 0.437500 0.706437
vt 0.437500 0.706437
vt 0.448834 0.693433
vt 0.046875 0.706437
vt 0.035541 0.693433
vt 0.035541 0.693433
vt 0.046875 0.706437
vt 0.426166 0.693433
vt 0.417869 0.657906
vt 0.417869 0.657906
vt 0.426166 0.693433
vt 0.027244 0.657906
vt 0.024207 0.609375
vt 0.024207 0.609375
vt 0.027244 0.657906
vt 0.414832 0.609375
vt 0.417869 0.560844
vt 0.417869 0.560844
vt 0.414832 0.609375
vt 0.027244 0.560844
vt 0.035541 0.525316
vt 0.035541 0.525316
vt 0.027244 0.560844
vt 0.437500 0.523684
vt 0.427494 0.535164
vt 0.432222 0.552782
vt 0.439538 0.549065
vt 0.426166 0.525316
vt 0.426166 0.525316
vt 0.437500 0.512313
vt 0.437500 0.512313
vt 0.432883 0.587003
vt 0.430889 0.599885
vt 0.437500 0.609375
vt 0.457132 0.592094
vt 0.454831 0.597779
vt 0.447506 0.566414
vt 0.448834 0.556566
vt 0.448834 0.556566
vt 0.447506 0.566414
vt 0.454831 0.597779
vt 0.457132 0.592094
vt 0.069543 0.640625
vt 0.066888 0.640625
vt 0.064206 0.597779
vt 0.066507 0.592094
vt 0.066507 0.592094
vt 0.064206 0.597779
vt 0.066888 0.640625
vt 0.069543 0.640625
vt 0.457132 0.689156
vt 0.454831 0.683470
vt 0.457513 0.640625
vt 0.460168 0.640625
vt 0.460168 0.640625
vt 0.457513 0.640625
vt 0.454831 0.683470
vt 0.457132 0.689156
vt 0.058209 0.724683
vt 0.056881 0.714836
vt 0.064206 0.683470
vt 0.066507 0.689156
vt 0.066507 0.689156
vt 0.064206 0.683470
vt 0.056881 0.714836
vt 0.058209 0.724683
vt 0.437500 0.737687
vt 0.437500 0.726316
vt 0.447506 0.714836
vt 0.448834 0.724683
vt 0.448834 0.724683
vt 0.447506 0.714836
vt 0.437500 0.726316
vt 0.437500 0.737687
vt 0.035541 0.724683
vt 0.036869 0.714836
vt 0.046875 0.726316
vt 0.046875 0.737687
vt 0.046875 0.737687
vt 0.046875 0.726316
vt 0.036869 0.714836
vt 0.035541 0.724683
vt 0.417869 0.689156
vt 0.420168 0.683471
vt 0.427494 0.714836
vt 0.426166 0.724683
vt 0.426166 0.724683
vt 0.427494 0.714836
vt 0.420168 0.683471
vt 0.417869 0.689156
vt 0.024207 0.640625
vt 0.026862 0.640625
vt 0.029543 0.683471
vt 0.027244 0.689156
vt 0.027244 0.689156
vt 0.029543 0.683471
vt 0.026862 0.640625
vt 0.024207 0.640625
vt 0.417869 0.592094
vt 0.420168 0.597779
vt 0.417487 0.640625
vt 0.414832 0.640625
vt 0.414832 0.640625
vt 0.417487 0.640625
vt 0.420168 0.597779
vt 0.417869 0.592094
vt 0.035541 0.556566
vt 0.036869 0.566414
vt 0.029543 0.597779
vt 0.027244 0.592094
vt 0.027244 0.592094
vt 0.029543 0.597779
vt 0.036869 0.566414
vt 0.035541 0.556566
vt 0.437500 0.543563
vt 0.437500 0.554934
vt 0.427494 0.566414
vt 0.426166 0.556566
vt 0.426166 0.556566
vt 0.427494 0.566414
vt 0.437500 0.554934
vt 0.437500 0.543563
vt 0.046875 0.512313
vt 0.046875 0.512313
vt 0.058209 0.525316
vt 0.058209 0.525316
vt 0.430666 0.615309
vt 0.432276 0.629144
vt 0.435284 0.637681
vt 0.438886 0.638634
vt 0.442117 0.631747
vt 0.444111 0.618865
vt 0.041597 0.552782
vt 0.035696 0.571664
vt 0.042258 0.587003
vt 0.045489 0.580116
vt 0.444334 0.603440
vt 0.442725 0.589606
vt 0.436114 0.580116
vt 0.439716 0.581068
vt 0.052100 0.589606
vt 0.046875 0.609375
vt 0.049091 0.581068
vt 0.045489 0.580116
vt 0.042258 0.587003
vt 0.040264 0.599885
vt 0.040041 0.615309
vt 0.041651 0.629144
vt 0.044659 0.637681
vt 0.048261 0.638634
vt 0.051492 0.631747
vt 0.417487 0.609375
vt 0.420168 0.566529
vt 0.426321 0.571664
vt 0.423415 0.600650
vt 0.040041 0.615309
vt 0.046875 0.609375
vt 0.040264 0.599885
vt 0.044659 0.637681
vt 0.041651 0.629144
vt 0.051492 0.631747
vt 0.048261 0.638634
vt 0.053709 0.603440
vt 0.053486 0.618865
vt 0.049091 0.581068
vt 0.052100 0.589606
vt 0.436114 0.580116
vt 0.439716 0.581068
vt 0.437500 0.609375
vt 0.430889 0.599885
vt 0.432883 0.587003
vt 0.432276 0.629144
vt 0.430666 0.615309
vt 0.438886 0.638634
vt 0.435284 0.637681
vt 0.444111 0.618865
vt 0.442117 0.631747
vt 0.035696 0.571664
vt 0.041597 0.552782
vt 0.053486 0.618865
vt 0.053709 0.603440
vt 0.060092 0.586776
vt 0.060960 0.618100
vt 0.058054 0.647086
vt 0.052153 0.665968
vt 0.044837 0.669685
vt 0.038068 0.657242
vt 0.033658 0.631974
vt 0.032790 0.600650
vt 0.046875 0.523684
vt 0.056881 0.535164
vt 0.055683 0.561508
vt 0.048913 0.549065
vt 0.450717 0.586776
vt 0.444334 0.603440
vt 0.442725 0.589606
vt 0.446308 0.561508
vt 0.448679 0.647086
vt 0.451585 0.618100
vt 0.435462 0.669685
vt 0.442778 0.665968
vt 0.424283 0.631974
vt 0.428693 0.657242
vt 0.029543 0.566529
vt 0.036869 0.535164
vt 0.446308 0.561508
vt 0.450717 0.586776
vt 0.451585 0.618100
vt 0.448679 0.647086
vt 0.442778 0.665967
vt 0.435462 0.669685
vt 0.428693 0.657242
vt 0.424283 0.631974
vt 0.055683 0.561508
vt 0.048913 0.549065
vt 0.060960 0.618100
vt 0.060092 0.586776
vt 0.052153 0.665967
vt 0.058054 0.647086
vt 0.038068 0.657242
vt 0.044837 0.669685
vt 0.032790 0.600650
vt 0.033658 0.631974
vt 0.423415 0.600650
vt 0.426321 0.571664
vt 0.420168 0.566529
vt 0.417487 0.609375
vt 0.420168 0.652221
vt 0.427494 0.683586
vt 0.437500 0.695066
vt 0.447506 0.683586
vt 0.454831 0.652220
vt 0.457513 0.609375
vt 0.454831 0.566529
vt 0.447506 0.535164
vt 0.427494 0.535164
vt 0.437500 0.523684
vt 0.439538 0.549065
vt 0.432222 0.552782
vt 0.029543 0.652221
vt 0.026862 0.609375
vt 0.046875 0.695066
vt 0.036869 0.683586
vt 0.064206 0.652220
vt 0.056881 0.683586
vt 0.064206 0.566529
vt 0.066888 0.609375
vt 0.046875 0.523684
vt 0.056881 0.535164
vt 0.029543 0.566529
vt 0.036869 0.535164
vt 0.029543 0.652221
vt 0.026862 0.609375
vt 0.046875 0.695066
vt 0.036869 0.683586
vt 0.064206 0.652220
vt 0.056881 0.683586
vt 0.064206 0.566529
vt 0.066888 0.609375
vt 0.058209 0.556566
vt 0.056881 0.566414
vt 0.046875 0.554934
vt 0.046875 0.543563
vt 0.427494 0.683586
vt 0.420168 0.652221
vt 0.447506 0.683586
vt 0.437500 0.695066
vt 0.457513 0.609375
vt 0.454831 0.652220
vt 0.447506 0.535164
vt 0.454831 0.566529
vt 0.046875 0.543563
vt 0.046875 0.554934
vt 0.056881 0.566414
vt 0.058209 0.556566
vn -0.7071 0.0000 -0.7071
vn -0.3827 0.0000 -0.9239
vn 1.0000 0.0000 0.0000
vn 0.9239 0.0000 0.3827
vn 0.3827 0.0000 0.9239
vn -0.0000 0.0000 1.0000
vn -0.3827 0.0000 0.9239
vn -0.9239 0.0000 0.3827
vn -1.0000 0.0000 -0.0000
vn 0.9239 0.0000 -0.3827
vn 0.3827 0.0000 -0.9239
vn 0.3601 -0.9329 0.0000
vn -0.0000 -1.0000 -0.0000
vn 0.2546 -0.9329 -0.2546
vn 0.2546 -0.9329 0.2546
vn -0.0000 -0.9329 0.3601
vn -0.2546 -0.9329 0.2546
vn -0.3601 -0.9329 0.0000
vn -0.2546 -0.9329 -0.2546
vn -0.0000 -0.9329 -0.3601
vn 0.5000 -0.8660 0.0000
vn 0.8660 -0.5000 0.0000
vn 0.8660 0.5000 -0.0000
vn 0.5000 0.8660 -0.0000
vn 0.0000 1.0000 -0.0000
vn -0.5000 0.8660 -0.0000
vn -0.8660 0.5000 0.0000
vn -0.8660 -0.5000 0.0000
vn -0.5000 -0.8660 0.0000
vn 0.0003 0.0336 -0.9994
vn 0.0170 0.0289 -0.9994
vn 0.0201 0.0520 -0.9984
vn -0.0086 0.0551 -0.9984
vn 0.0503 0.0515 -0.9974
vn 0.0693 0.0195 -0.9974
vn 0.0000 -0.0000 -1.0000
vn 0.5987 -0.3457 0.7225
vn 0.3457 -0.5987 0.7225
vn 0.3457 -0.5987 -0.7225
vn 0.5987 -0.3457 -0.7225
vn 0.6914 -0.0000 0.7225
vn 0.6914 -0.0000 -0.7225
vn 0.5987 0.3457 0.7225
vn 0.5987 0.3457 -0.7225
vn 0.3457 0.5987 0.7225
vn 0.3457 0.5987 -0.7225
vn 0.0000 0.6914 0.7225
vn -0.0000 0.6914 -0.7225
vn -0.3457 0.5988 0.7225
vn -0.3457 0.5987 0.7225
vn -0.3457 0.5987 -0.7225
vn -0.3457 0.5988 -0.7225
vn -0.5988 0.3457 0.7225
vn -0.5988 0.3457 -0.7225
vn -0.6914 0.0000 0.7225
vn -0.6914 0.0000 -0.7225
vn -0.5988 -0.3457 0.7225
vn -0.5988 -0.3457 -0.7225
vn -0.3457 -0.5988 0.7225
vn -0.3457 -0.5987 0.7225
vn -0.3457 -0.5987 -0.7225
vn -0.3457 -0.5988 -0.7225
vn 0.0000 -0.6914 0.7225
vn -0.0000 -0.6914 -0.7225
vn 0.0698 -0.0178 -0.9974
vn 0.0515 -0.0503 -0.9974
vn 0.0195 -0.0693 -0.9974
vn -0.0178 -0.0698 -0.9974
vn -0.0503 -0.0515 -0.9974
vn -0.0693 -0.0195 -0.9974
vn 0.0434 0.0350 -0.9984
vn 0.0178 0.0698 -0.9974
vn -0.0698 0.0178 -0.9974
vn -0.0515 0.0503 -0.9974
vn -0.0195 0.0693 -0.9974
vn -0.0515 0.0503 0.9974
vn -0.0195 0.0693 0.9974
vn 0.0178 0.0698 0.9974
vn 0.0503 0.0515 0.9974
vn 0.0693 0.0195 0.9974
vn 0.0698 -0.0178 0.9974
vn 0.0515 -0.0503 0.9974
vn 0.0195 -0.0693 0.9974
vn -0.0178 -0.0698 0.9974
vn -0.0503 -0.0515 0.9974
vn 0.0336 -0.0003 0.9994
vn 0.0292 0.0165 0.9994
vn 0.0434 0.0350 0.9984
vn 0.0551 0.0086 0.9984
vn -0.0693 -0.0195 0.9974
vn 0.0201 0.0520 0.9984
vn -0.0698 0.0178 0.9974
vn -0.0520 0.0201 0.9984
vn -0.0551 -0.0086 0.9984
vn -0.0434 -0.0350 0.9984
vn -0.0201 -0.0520 0.9984
vn 0.0086 -0.0551 0.9984
vn 0.0350 -0.0434 0.9984
vn 0.0520 -0.0201 0.9984
vn 0.0003 0.0336 0.9994
vn -0.0165 0.0292 0.9994
vn -0.0350 0.0434 0.9984
vn -0.0086 0.0551 0.9984
vn 0.0292 0.0165 -0.9994
vn -0.0350 0.0434 -0.9984
vn -0.0520 0.0201 -0.9984
vn -0.0551 -0.0086 -0.9984
vn -0.0434 -0.0350 -0.9984
vn -0.0201 -0.0520 -0.9984
vn 0.0086 -0.0551 -0.9984
vn 0.0350 -0.0434 -0.9984
vn 0.0520 -0.0201 -0.9984
vn 0.0551 0.0086 -0.9984
vn 0.0336 -0.0003 -0.9994
vn 0.0289 -0.0170 -0.9994
vn 0.0165 -0.0292 -0.9994
vn -0.0003 -0.0336 -0.9994
vn -0.0170 -0.0289 -0.9994
vn -0.0292 -0.0165 -0.9994
vn -0.0336 0.0003 -0.9994
vn -0.0289 0.0170 -0.9994
vn -0.0165 0.0292 -0.9994
vn 0.0170 0.0289 0.9994
vn 0.0289 -0.0170 0.9994
vn -0.0003 -0.0336 0.9994
vn 0.0165 -0.0292 0.9994
vn -0.0292 -0.0165 0.9994
vn -0.0170 -0.0289 0.9994
vn -0.0289 0.0170 0.9994
vn -0.0336 0.0003 0.9994
usemtl HalloweenBits
s 1
f 17/1/1 8/2/1 1/3/2 10/4/2
f 12/5/3 3/6/3 4/7/4 13/8/4
f 13/8/5 4/7/5 5/9/6 14/10/6
f 14/10/6 5/9/6 6/11/7 15/12/7
f 15/12/8 6/11/8 7/13/9 16/14/9
f 16/14/9 7/13/9 8/2/1 17/1/1
f 11/15/10 2/16/10 3/6/3 12/5/3
f 10/4/11 1/3/11 2/16/11 11/15/11
f 12/5/12 9/17/13 11/15/14
f 13/8/15 9/17/13 12/5/12
f 14/10/16 9/17/13 13/8/15
f 15/12/17 9/17/13 14/10/16
f 16/14/18 9/17/13 15/12/17
f 17/1/19 9/17/13 16/14/18
f 10/4/20 9/17/13 17/1/19
f 25/18/21 29/19/22 27/20/22 23/21/21
f 29/22/22 33/23/3 31/24/3 27/25/22
f 33/26/3 37/27/23 35/28/23 31/29/3
f 37/30/23 41/31/24 39/32/24 35/33/23
f 41/34/24 45/35/25 43/36/25 39/37/24
f 45/38/25 49/39/26 47/40/26 43/41/25
f 49/42/26 53/43/27 51/44/27 47/45/26
f 53/46/27 57/47/9 55/48/9 51/49/27
f 57/50/9 61/51/28 59/52/28 55/53/9
f 61/54/28 65/55/29 63/56/29 59/57/28
f 20/58/30 64/59/31 93/60/32 92/61/33
f 63/62/29 65/63/29 21/64/13 19/65/13
f 87/66/34 81/67/35 67/68/36
f 27/69/37 26/70/37 22/71/38 23/72/38
f 25/73/39 24/74/39 28/75/40 29/76/40
f 31/77/41 30/78/41 26/79/37 27/80/37
f 29/81/40 28/82/40 32/83/42 33/84/42
f 35/85/43 34/86/43 30/87/41 31/88/41
f 33/89/42 32/90/42 36/91/44 37/92/44
f 39/93/45 38/94/45 34/95/43 35/96/43
f 37/97/44 36/98/44 40/99/46 41/100/46
f 43/101/47 42/102/47 38/103/45 39/104/45
f 41/105/46 40/106/46 44/107/48 45/108/48
f 47/109/49 46/110/50 42/111/47 43/112/47
f 45/113/48 44/114/48 48/115/51 49/116/52
f 51/117/53 50/118/53 46/119/50 47/120/49
f 49/121/52 48/122/51 52/123/54 53/124/54
f 55/125/55 54/126/55 50/127/53 51/128/53
f 53/129/54 52/130/54 56/131/56 57/132/56
f 59/133/57 58/134/57 54/135/55 55/136/55
f 57/137/56 56/138/56 60/139/58 61/140/58
f 63/141/59 62/142/60 58/143/57 59/144/57
f 61/145/58 60/146/58 64/147/61 65/148/62
f 19/149/63 18/150/63 62/151/60 63/152/59
f 65/153/62 64/154/61 20/155/64 21/156/64
f 19/157/13 21/158/13 25/159/21 23/160/21
f 88/161/65 82/162/66 67/68/36
f 89/163/67 83/164/68 67/68/36
f 90/165/69 84/166/70 67/68/36
f 93/167/32 99/168/71 87/169/34 80/170/72
f 91/171/73 85/172/74 67/68/36
f 93/60/32 80/173/72 86/174/75 92/61/33
f 79/175/76 66/176/6 68/177/77
f 74/178/78 66/176/6 69/179/79
f 75/180/80 66/176/6 70/181/81
f 76/182/82 66/176/6 71/183/83
f 77/184/84 66/176/6 72/185/85
f 54/186/86 58/187/87 105/188/88 111/189/89
f 88/190/65 67/191/36 81/192/35
f 89/193/67 67/191/36 82/194/66
f 90/195/69 67/191/36 83/196/68
f 91/197/73 67/191/36 84/198/70
f 86/199/75 67/191/36 85/200/74
f 86/174/75 80/173/72 67/68/36
f 74/201/78 68/202/77 66/203/6
f 75/204/80 69/205/79 66/203/6
f 76/206/82 70/207/81 66/203/6
f 77/208/84 71/209/83 66/203/6
f 78/210/90 72/211/85 66/203/6
f 105/212/88 110/213/91 74/178/78 69/179/79
f 78/214/90 66/176/6 73/215/92
f 109/216/93 114/217/94 78/214/90 73/215/92
f 108/218/95 113/219/96 77/184/84 72/185/85
f 107/220/97 112/221/98 76/182/82 71/183/83
f 106/222/99 111/223/89 75/180/80 70/181/81
f 18/224/100 22/225/101 115/226/102 104/227/103
f 109/228/93 73/229/92 79/230/76 115/231/102
f 108/232/95 72/211/85 78/210/90 114/233/94
f 107/234/97 71/209/83 77/208/84 113/235/96
f 106/236/99 70/207/81 76/206/82 112/237/98
f 105/188/88 69/205/79 75/204/80 111/189/89
f 60/238/104 99/168/71 93/167/32 64/239/31
f 98/240/105 85/172/74 91/171/73 103/241/106
f 97/242/107 84/166/70 90/165/69 102/243/108
f 96/244/109 83/164/68 89/163/67 101/245/110
f 95/246/111 82/162/66 88/161/65 100/247/112
f 87/169/34 67/191/36 80/170/72
f 98/248/105 92/249/33 86/199/75 85/200/74
f 97/250/107 103/251/106 91/197/73 84/198/70
f 96/252/109 102/253/108 90/195/69 83/196/68
f 95/254/111 101/255/110 89/193/67 82/194/66
f 94/256/113 100/257/112 88/190/65 81/192/35
f 94/258/113 81/67/35 87/66/34 99/259/71
f 60/260/104 56/261/114 94/258/113 99/259/71
f 52/262/115 48/263/116 95/246/111 100/247/112
f 44/264/117 40/265/118 96/244/109 101/245/110
f 36/266/119 32/267/120 97/242/107 102/243/108
f 28/268/121 24/269/122 98/240/105 103/241/106
f 62/270/123 18/271/100 104/272/103 110/273/91
f 52/274/115 100/257/112 94/256/113 56/275/114
f 44/276/117 101/255/110 95/254/111 48/277/116
f 36/278/119 102/253/108 96/252/109 40/279/118
f 28/280/121 103/251/106 97/250/107 32/281/120
f 20/282/30 92/249/33 98/248/105 24/283/122
f 104/272/103 68/202/77 74/201/78 110/273/91
f 58/284/87 62/285/123 110/213/91 105/212/88
f 50/286/124 54/287/86 111/223/89 106/222/99
f 42/288/125 46/289/126 112/221/98 107/220/97
f 34/290/127 38/291/128 113/219/96 108/218/95
f 26/292/129 30/293/130 114/217/94 109/216/93
f 23/294/38 22/295/38 18/296/63 19/297/63
f 79/230/76 73/229/92 66/203/6
f 46/298/126 50/299/124 106/236/99 112/237/98
f 38/300/128 42/301/125 107/234/97 113/235/96
f 30/302/130 34/303/127 108/232/95 114/233/94
f 22/304/101 26/305/129 109/228/93 115/231/102
f 104/227/103 115/226/102 79/175/76 68/177/77
f 21/306/64 20/307/64 24/308/39 25/309/39
f 11/15/14 9/17/13 10/4/20
