# Blender v3.4.1 OBJ File: 'Halloween_Bits_Export.blend'
# www.blender.org
mtllib sign_left.mtl
o sign_left_Cube.901
v 0.200000 -0.000000 0.200001
v -0.200000 -0.000000 0.200001
v 0.200000 -0.000000 -0.199999
v -0.200000 -0.000000 -0.199999
v -0.200000 1.245234 0.176928
v -0.200000 1.245234 -0.176926
v -0.200000 0.648667 -0.193457
v 0.187458 0.521852 -0.193457
v 0.187458 0.521852 0.193458
v 0.180127 1.288098 0.176928
v -0.105390 0.620908 0.193459
v -0.200000 0.733354 0.192337
v -0.200000 0.648667 0.108763
v -0.200000 0.563986 0.194014
v 0.181364 1.372777 -0.178068
v 0.180127 1.288098 -0.092231
v 0.180565 1.203409 -0.177914
v 0.093900 1.277838 -0.176926
v -0.151691 2.000000 0.147899
v -0.200000 1.947903 0.199316
v -0.200000 1.947903 -0.199314
v -0.151691 2.000000 -0.147898
v 0.151691 2.000000 -0.147898
v 0.204367 1.947903 -0.199297
v 0.151691 2.000000 0.147899
v 0.204367 1.947903 0.199298
v 0.600000 1.150000 0.402639
v -0.900000 1.000000 0.402639
v 0.600000 0.850000 0.402639
v 0.600000 0.850000 0.202639
v 0.600000 1.150000 0.202639
v -0.400000 0.850000 0.202639
v -0.900000 1.000000 0.202639
v -0.400000 1.150000 0.202639
v -0.400000 0.850000 0.402639
v -0.400000 1.150000 0.402639
v -0.400000 0.650000 0.402639
v -0.400000 0.650000 0.202639
v -0.400000 1.350000 0.402639
v -0.400000 1.350000 0.202639
v 0.250000 1.150000 0.402639
v 0.250000 1.150000 0.202639
v 0.148356 0.850000 0.402639
v 0.351644 0.850000 0.402639
v 0.250000 0.951644 0.402639
v 0.351644 0.850000 0.202639
v 0.148356 0.850000 0.202639
v 0.250000 0.951644 0.202639
v -0.960009 1.000000 0.302639
v -0.357567 1.192433 0.302639
v -0.357567 0.807567 0.302639
v 0.642433 1.192433 0.302639
v 0.642433 0.807567 0.302639
v -0.359217 0.569840 0.302639
v -0.359217 1.430160 0.302639
v 0.250000 1.210009 0.302639
v 0.328680 0.794559 0.302639
v 0.250000 0.891635 0.302639
v 0.171320 0.794559 0.302639
v -0.618949 1.196736 0.402639
v -0.681050 1.153265 0.402639
v -0.618628 1.105143 0.402639
v -0.681050 1.153265 0.202639
v -0.618949 1.196736 0.202639
v -0.618628 1.105143 0.202639
v -0.628779 1.237157 0.302639
v -0.690447 1.193004 0.302639
v -0.633729 1.144434 0.302639
vt 0.928935 0.604077
vt 0.924963 0.585939
vt 0.928935 0.601564
vt 0.928935 0.632814
vt 0.928935 0.632814
vt 0.928935 0.630481
vt 0.928935 0.682099
vt 0.928935 0.682061
vt 0.928935 0.635327
vt 0.912340 0.632814
vt 0.912340 0.682061
vt 0.912340 0.682099
vt 0.912340 0.632814
vt 0.912340 0.617189
vt 0.912340 0.666474
vt 0.928935 0.666474
vt 0.928935 0.617189
vt 0.926773 0.714857
vt 0.914501 0.714857
vt 0.914501 0.714857
vt 0.926773 0.714857
vt 0.912340 0.593743
vt 0.912340 0.596393
vt 0.912340 0.575795
vt 0.915972 0.578118
vt 0.928935 0.578118
vt 0.912340 0.580768
vt 0.928935 0.550768
vt 0.928935 0.578118
vt 0.912340 0.578118
vt 0.912340 0.550768
vt 0.928935 0.619702
vt 0.928935 0.666436
vt 0.912340 0.666436
vt 0.912340 0.617189
vt 0.928935 0.566393
vt 0.928935 0.593743
vt 0.928935 0.593743
vt 0.928935 0.566393
vt 0.928935 0.614856
vt 0.924963 0.617189
vt 0.912340 0.562493
vt 0.912340 0.565143
vt 0.915972 0.546868
vt 0.924963 0.648439
vt 0.928935 0.646106
vt 0.928935 0.664064
vt 0.912340 0.593743
vt 0.912340 0.591420
vt 0.912340 0.607045
vt 0.912340 0.624993
vt 0.915972 0.609368
vt 0.912340 0.550768
vt 0.928935 0.550768
vt 0.912340 0.566393
vt 0.912340 0.566393
vt 0.928935 0.683607
vt 0.928935 0.683607
vt 0.912369 0.714857
vt 0.928905 0.714857
vt 0.912340 0.683607
vt 0.912340 0.683607
vt 0.914501 0.667982
vt 0.926773 0.667982
vt 0.810165 0.910578
vt 0.817334 0.909278
vt 0.816559 0.906140
vt 0.810165 0.906140
vt 0.799035 0.800730
vt 0.798290 0.806659
vt 0.789156 0.832546
vt 0.788059 0.832546
vt 0.789156 0.863796
vt 0.798290 0.837909
vt 0.798290 0.852701
vt 0.810165 0.874890
vt 0.810165 0.860219
vt 0.808308 0.852701
vt 0.798290 0.852701
vt 0.798290 0.874890
vt 0.812022 0.852701
vt 0.799065 0.833938
vt 0.798290 0.837076
vt 0.798290 0.822284
vt 0.799035 0.816355
vt 0.817334 0.878028
vt 0.817334 0.849563
vt 0.816559 0.852701
vt 0.816559 0.874890
vt 0.799065 0.818313
vt 0.798290 0.821451
vt 0.808308 0.821451
vt 0.808728 0.817351
vt 0.794296 0.871572
vt 0.793156 0.875131
vt 0.794296 0.871572
vt 0.799065 0.862403
vt 0.798290 0.859265
vt 0.798290 0.874057
vt 0.799035 0.879986
vt 0.798290 0.837909
vt 0.789156 0.863796
vt 0.798290 0.874890
vt 0.808308 0.852701
vt 0.810165 0.874890
vt 0.811602 0.817351
vt 0.812022 0.821451
vt 0.816559 0.821451
vt 0.817334 0.818313
vt 0.816559 0.874890
vt 0.812022 0.852701
vt 0.816559 0.852701
vt 0.810165 0.860219
vt 0.799065 0.909278
vt 0.798290 0.906140
vt 0.812022 0.821451
vt 0.810165 0.828969
vt 0.810165 0.824531
vt 0.810165 0.808906
vt 0.810165 0.813344
vt 0.808308 0.805826
vt 0.808728 0.801726
vt 0.799035 0.926861
vt 0.798290 0.920932
vt 0.794290 0.909597
vt 0.794111 0.912586
vt 0.810165 0.813344
vt 0.808308 0.805826
vt 0.810165 0.828969
vt 0.798290 0.906140
vt 0.810165 0.906140
vt 0.816559 0.821451
vt 0.798290 0.859265
vt 0.798290 0.874057
vt 0.793156 0.875131
vt 0.798290 0.821451
vt 0.808308 0.821451
vt 0.798290 0.837076
vt 0.798290 0.822284
vt 0.798290 0.806659
vt 0.789156 0.832546
vt 0.816559 0.906140
vt 0.792984 0.909320
vt 0.793156 0.906381
vt 0.789156 0.895046
vt 0.788059 0.895046
vt 0.793156 0.906381
vt 0.789156 0.895046
vt 0.798290 0.920932
vt 0.794290 0.909597
vt 0.794290 0.878347
vt 0.798290 0.889682
vt 0.794290 0.878347
vt 0.792984 0.924945
vt 0.793156 0.922006
vt 0.794296 0.918447
vt 0.794020 0.921353
vt 0.794020 0.858853
vt 0.794296 0.855947
vt 0.794290 0.862722
vt 0.794111 0.865711
vt 0.793156 0.922006
vt 0.794296 0.918447
vt 0.794296 0.855947
vt 0.794290 0.862722
vt 0.798290 0.889682
vn 0.6099 -0.5685 -0.5521
vn 0.0036 -0.0020 -1.0000
vn 0.0001 -0.0011 -1.0000
vn 0.0028 0.0216 -0.9998
vn 0.0041 -0.0342 -0.9994
vn 0.0036 -0.0299 -0.9995
vn 0.0028 -0.0062 1.0000
vn 0.0018 -0.0329 0.9995
vn 0.0030 -0.0019 1.0000
vn -1.0000 0.0000 0.0000
vn -0.9610 0.2765 0.0000
vn 0.0000 1.0000 0.0000
vn 0.4407 0.8977 0.0000
vn 0.0025 0.0158 0.9999
vn 0.0041 0.0233 0.9997
vn 0.9997 0.0240 0.0000
vn 0.9999 0.0170 -0.0003
vn 0.9995 -0.0328 -0.0020
vn 0.9993 -0.0382 -0.0027
vn 0.9999 -0.0129 -0.0014
vn 0.0018 0.0112 -0.9999
vn 0.0033 0.0196 -0.9998
vn 0.0028 0.0167 -0.9999
vn 1.0000 0.0088 -0.0004
vn 1.0000 -0.0047 0.0000
vn -0.6447 -0.5370 0.5441
vn 0.5171 0.6101 -0.6004
vn 0.0035 0.0103 0.9999
vn 0.0016 0.0099 0.9999
vn -0.3894 0.6535 0.6491
vn 0.0013 0.0116 0.9999
vn 0.0000 0.7024 -0.7118
vn 0.7032 0.7110 0.0000
vn 0.0000 0.7024 0.7118
vn -0.7333 0.6799 -0.0000
vn 0.0042 0.8897 -0.4566
vn 0.0210 0.8880 -0.4593
vn 0.0043 0.8897 -0.4566
vn -0.5782 -0.8159 -0.0000
vn -0.5401 -0.7620 0.3573
vn 0.0000 -0.0000 1.0000
vn -0.0000 0.0000 -1.0000
vn 0.9225 -0.0035 0.3860
vn 0.9206 -0.0000 -0.3906
vn -0.0109 -0.8996 -0.4367
vn 0.3545 -0.8112 -0.4652
vn 0.3493 -0.8134 -0.4652
vn 0.9225 0.0035 -0.3860
vn -0.3456 -0.8131 -0.4684
vn -0.3498 -0.8113 -0.4684
vn 0.0208 -0.8972 -0.4411
vn -0.0125 0.8910 -0.4538
vn -0.3456 -0.8131 0.4684
vn -0.3498 -0.8113 0.4684
vn -0.6695 -0.6075 0.4275
vn 0.6695 -0.6075 0.4275
vn 0.3545 -0.8112 0.4652
vn 0.3493 -0.8134 0.4652
vn -0.5783 0.8158 -0.0000
vn -0.5365 0.7569 -0.3733
vn 0.6695 -0.6075 -0.4275
vn -0.6695 -0.6075 -0.4275
vn -0.0125 0.8910 0.4538
vn 0.0043 0.8897 0.4566
vn 0.0042 0.8897 0.4566
vn 0.0208 -0.8972 0.4411
vn 0.9225 0.0035 0.3860
vn -0.0109 -0.8996 0.4367
vn 0.9206 -0.0000 0.3906
vn 0.9225 -0.0035 -0.3860
vn -0.5401 -0.7620 -0.3573
vn 0.0210 0.8880 0.4593
vn -0.5436 0.7669 -0.3410
vn -0.5436 0.7669 0.3410
vn -0.5365 0.7569 0.3733
vn 0.6302 0.7765 0.0000
vn 0.6142 0.7568 0.2238
vn -0.9997 0.0251 -0.0000
vn -0.9907 0.0249 0.1334
vn 0.6142 0.7568 -0.2238
vn -0.9907 0.0249 -0.1334
usemtl HalloweenBits
s 1
f 15/1/1 16/2/1 18/3/1
f 6/4/2 18/5/3 17/6/4
f 6/4/2 21/7/5 24/8/5 15/9/6
f 10/10/7 26/11/8 20/12/8 5/13/9
f 5/14/10 20/15/11 21/16/11 6/17/10
f 22/18/12 19/19/12 25/20/13 23/21/13
f 9/22/14 10/10/7 5/13/9 12/23/15
f 14/24/10 13/25/10 7/26/10
f 12/27/10 5/14/10 6/17/10 7/26/10
f 3/28/16 8/29/17 9/30/17 1/31/16
f 15/32/18 24/33/19 26/34/19 10/35/20
f 4/36/21 7/37/22 8/38/23 3/39/21
f 17/40/24 16/41/25 10/35/20
f 11/42/26 12/43/26 13/44/26
f 16/45/27 17/46/27 18/47/27
f 9/22/14 11/48/28 14/49/29
f 18/5/3 6/4/2 15/9/6
f 16/41/25 15/32/18 10/35/20
f 8/29/17 17/40/24 10/35/20 9/30/17
f 7/37/22 6/4/2 17/6/4 8/38/23
f 14/50/30 11/51/30 13/52/30
f 2/53/10 14/24/10 7/26/10 4/54/10
f 13/25/10 12/27/10 7/26/10
f 11/48/28 9/22/14 12/23/15
f 1/55/31 9/22/14 14/49/29 2/56/31
f 22/57/32 23/58/32 24/8/32 21/7/32
f 23/21/13 25/20/13 26/59/33 24/60/33
f 25/61/34 19/62/34 20/12/34 26/11/34
f 19/63/35 22/64/35 21/16/11 20/15/11
f 56/65/36 52/66/37 31/67/37 42/68/38
f 54/69/39 37/70/40 28/71/40 49/72/39
f 28/73/41 37/74/41 35/75/41
f 42/76/42 48/77/42 47/78/42
f 47/78/42 32/79/42 34/80/42 42/76/42
f 42/76/42 46/81/42 48/77/42
f 51/82/43 35/83/43 37/84/43 54/85/43
f 52/86/44 53/87/44 30/88/44 31/89/44
f 51/90/45 32/91/45 47/92/46 59/93/47
f 28/73/41 35/75/41 62/94/41 61/95/41
f 34/80/42 32/79/42 65/96/42
f 50/97/48 34/98/48 40/99/48 55/100/48
f 38/101/42 33/102/42 32/79/42
f 36/103/41 35/75/41 43/104/41 41/105/41
f 57/106/49 46/107/50 30/108/51 53/109/51
f 27/110/41 41/105/41 44/111/41 29/112/41
f 41/105/41 43/104/41 45/113/41
f 50/114/52 56/65/36 42/68/38 34/115/52
f 57/106/53 44/116/54 45/117/55 58/118/55
f 58/119/56 45/120/56 43/121/57 59/122/58
f 41/105/41 45/113/41 44/111/41
f 55/123/59 40/124/60 64/125/60 66/126/59
f 31/89/42 30/88/42 46/81/42 42/76/42
f 48/127/61 58/119/61 59/122/47 47/128/46
f 46/107/50 57/106/49 58/118/62 48/129/62
f 36/130/63 41/131/64 56/65/65 50/114/63
f 44/116/54 57/106/53 53/109/66 29/132/66
f 36/133/67 50/97/67 55/100/67 39/134/67
f 33/102/42 63/135/42 65/96/42 32/79/42
f 35/136/68 51/90/68 59/93/58 43/137/57
f 27/110/69 29/112/69 53/87/69 52/86/69
f 32/138/70 51/82/70 54/85/70 38/139/70
f 38/140/71 54/69/39 49/72/39 33/141/71
f 41/131/64 27/142/72 52/66/72 56/65/65
f 67/143/59 63/144/73 33/145/73 49/146/59
f 61/147/74 67/143/59 49/146/59 28/148/74
f 39/149/75 55/123/59 66/126/59 60/150/75
f 62/94/41 36/103/41 60/151/41
f 35/75/41 36/103/41 62/94/41
f 40/152/42 34/80/42 64/153/42
f 34/80/42 65/96/42 64/153/42
f 67/154/76 61/155/77 62/156/77 68/157/76
f 68/158/78 62/159/79 60/160/79 66/161/78
f 63/162/80 67/154/76 68/157/76 65/163/80
f 65/164/81 68/158/78 66/161/78 64/165/81
f 36/103/41 39/166/41 60/151/41
